HIERARCHY
ROOT Hips
{
	OFFSET -0.001795 -0.223333 0.028219
	CHANNELS 6 Xposition Yposition Zposition Zrotation Yrotation Xrotation 
	JOINT LeftUpLeg
	{
		OFFSET 0.069520 -0.091406 -0.006815
		CHANNELS 3 Zrotation Yrotation Xrotation
		JOINT LeftLeg
		{
			OFFSET 0.034277 -0.375199 -0.004496
			CHANNELS 3 Zrotation Yrotation Xrotation
			JOINT LeftFoot
			{
				OFFSET -0.013596 -0.397961 -0.043693
				CHANNELS 3 Zrotation Yrotation Xrotation
				JOINT LeftToe
				{
					OFFSET 0.026358 -0.055791 0.119288
					CHANNELS 3 Zrotation Yrotation Xrotation
					End Site
					{
						OFFSET 0.000000 0.000000 0.000000
					}
				}
			}
		}
	}
	JOINT RightUpLeg
	{
		OFFSET -0.067670 -0.090522 -0.004320
		CHANNELS 3 Zrotation Yrotation Xrotation
		JOINT RightLeg
		{
			OFFSET -0.038290 -0.382569 -0.008850
			CHANNELS 3 Zrotation Yrotation Xrotation
			JOINT RightFoot
			{
				OFFSET 0.015774 -0.398415 -0.042312
				CHANNELS 3 Zrotation Yrotation Xrotation
				JOINT RightToe
				{
					OFFSET -0.025372 -0.048144 0.123348
					CHANNELS 3 Zrotation Yrotation Xrotation
					End Site
					{
						OFFSET 0.000000 0.000000 0.000000
					}
				}
			}
		}
	}
	JOINT Spine
	{
		OFFSET -0.002533 0.108963 -0.026696
		CHANNELS 3 Zrotation Yrotation Xrotation
		JOINT Spine1
		{
			OFFSET 0.005487 0.135180 0.001092
			CHANNELS 3 Zrotation Yrotation Xrotation
			JOINT Spine2
			{
				OFFSET 0.001457 0.052922 0.025425
				CHANNELS 3 Zrotation Yrotation Xrotation
				JOINT Neck
				{
					OFFSET -0.002778 0.213870 -0.042857
					CHANNELS 3 Zrotation Yrotation Xrotation
					JOINT Head
					{
						OFFSET 0.005152 0.064970 0.051349
						CHANNELS 3 Zrotation Yrotation Xrotation
						End Site
						{
							OFFSET 0.000000 0.000000 0.000000
						}
					}
				}
				JOINT LeftShoulder
				{
					OFFSET 0.078845 0.121749 -0.034090
					CHANNELS 3 Zrotation Yrotation Xrotation
					JOINT LeftArm
					{
						OFFSET 0.090977 0.030469 -0.008868
						CHANNELS 3 Zrotation Yrotation Xrotation
						JOINT LeftForeArm
						{
							OFFSET 0.259612 -0.012772 -0.027456
							CHANNELS 3 Zrotation Yrotation Xrotation
							JOINT LeftHand
							{
								OFFSET 0.249234 0.008986 -0.001171
								CHANNELS 3 Zrotation Yrotation Xrotation
								End Site
								{
									OFFSET 0.000000 0.000000 0.000000
								}
							}
						}
					}
				}
				JOINT RightShoulder
				{
					OFFSET -0.081759 0.118833 -0.038615
					CHANNELS 3 Zrotation Yrotation Xrotation
					JOINT RightArm
					{
						OFFSET -0.096012 0.032551 -0.009143
						CHANNELS 3 Zrotation Yrotation Xrotation
						JOINT RightForeArm
						{
							OFFSET -0.253742 -0.013329 -0.021401
							CHANNELS 3 Zrotation Yrotation Xrotation
							JOINT RightHand
							{
								OFFSET -0.255298 0.007772 -0.005559
								CHANNELS 3 Zrotation Yrotation Xrotation
								End Site
								{
									OFFSET 0.000000 0.000000 0.000000
								}
							}
						}
					}
				}
			}
		}
	}
}
MOTION
Frames: 10
Frame Time: 0.050000
0.000000 0.957671 0.000000 -0.595216 -0.511255 3.034914 5.830663 -0.099276 0.161119 -0.030927 0.181849 -5.277091 -2.564212 0.623388 12.826015 0.000000 0.000000 0.000000 -3.912787 0.150295 -0.408190 -0.335008 -0.152341 -4.418431 0.733011 -4.735856 15.177363 0.000000 0.000000 0.000000 0.091048 0.045923 -1.135326 -0.141008 0.065987 0.064996 0.263860 1.063526 3.168388 2.692836 -0.188353 -18.156100 0.000000 0.000000 0.000000 -24.620746 -3.360822 -0.734140 -44.025652 0.570593 -5.168443 0.468735 -17.426296 0.565220 0.000000 0.000000 0.000000 20.051430 2.992748 -0.090543 52.131330 2.293254 -3.961622 -15.601497 15.160478 -1.207491 0.000000 0.000000 0.000000 
0.000132 0.956220 0.000336 -0.733894 -1.158127 3.365190 5.995507 -0.075619 0.725010 -0.159010 0.235686 -6.615604 -2.246851 1.048394 12.814156 0.000000 0.000000 0.000000 -4.486278 0.189397 -0.628964 0.105071 -0.196511 -4.845281 2.052274 -2.482401 15.228950 0.000000 0.000000 0.000000 -0.206639 0.083713 -1.996713 -0.396146 0.163580 1.360899 0.592731 1.228662 1.804948 2.932112 -0.175661 -19.714993 0.000000 0.000000 0.000000 -25.047849 -3.793949 -0.486040 -44.305938 0.688237 -5.147014 1.991984 -18.090099 0.349111 0.000000 0.000000 0.000000 20.341118 3.685899 0.164461 51.080500 4.578918 -2.792072 -22.883876 17.202619 -2.392133 0.000000 0.000000 0.000000 
0.000569 0.955706 0.000302 -0.347410 -1.158928 3.105941 5.608116 -0.055959 0.887859 -0.274927 0.235707 -6.426457 -2.251602 0.990918 12.678686 0.000000 0.000000 0.000000 -4.902493 0.182728 -0.348999 0.112158 -0.209867 -5.192546 1.910007 -2.916322 15.691905 0.000000 0.000000 0.000000 -0.255300 0.079192 -1.889935 -0.516579 0.255662 -0.500474 0.607294 0.462916 3.473530 3.589946 -0.590469 -20.357830 0.000000 0.000000 0.000000 -24.640072 -4.536466 0.330878 -44.485276 -0.360049 -5.027960 3.387608 -18.354081 0.170191 0.000000 0.000000 0.000000 20.789087 5.123700 0.776350 48.321594 8.105067 -1.388999 -31.873372 18.298117 -3.908122 0.000000 0.000000 0.000000 
0.001042 0.955233 0.000036 -0.499738 -1.177619 3.388850 6.186423 -0.075200 0.847174 -1.049837 0.290483 -6.911378 -2.260119 0.987919 12.722459 0.000000 0.000000 0.000000 -5.163486 0.216102 -0.748431 0.720266 -0.250920 -5.395450 2.059104 -2.914851 16.411268 0.000000 0.000000 0.000000 -0.637351 0.105684 -2.578069 -0.610354 0.290096 0.067802 1.399073 -0.355042 2.834731 3.642408 -0.675728 -20.770633 0.000000 0.000000 0.000000 -25.278884 -4.919380 0.851654 -44.918642 -0.027182 -5.234303 4.149184 -19.563846 0.083435 0.000000 0.000000 0.000000 21.015059 7.113482 1.564643 44.541177 11.505591 0.034934 -42.130671 20.702234 -6.508109 0.000000 0.000000 0.000000 
0.001551 0.955386 -0.000209 -0.390623 -1.671012 3.116259 5.574693 -0.041135 1.053705 -0.320580 0.245917 -6.620133 -1.994560 1.327572 12.627318 0.000000 0.000000 0.000000 -5.374773 0.215255 -0.568597 0.650500 -0.238664 -5.182724 2.460232 -2.143241 16.013546 0.000000 0.000000 0.000000 -0.429929 0.118981 -2.892178 -0.670055 0.311008 0.651788 1.310443 0.124659 2.178354 4.553365 -1.199292 -20.103210 0.000000 0.000000 0.000000 -25.172507 -5.478045 1.081818 -45.431325 -0.413690 -5.079782 4.033593 -19.917770 0.090030 0.000000 0.000000 0.000000 21.337271 7.572804 1.862139 40.252686 16.756550 1.660661 -52.653289 24.128876 -10.123406 0.000000 0.000000 0.000000 
0.001978 0.954947 -0.000237 -0.304884 -2.270462 3.241341 5.521245 -0.030733 1.116787 -0.337914 0.249341 -6.649961 -1.974526 1.185207 12.372409 0.000000 0.000000 0.000000 -5.693336 0.267328 -1.238212 0.702639 -0.220184 -4.562150 2.980833 -1.319865 16.013976 0.000000 0.000000 0.000000 -0.395222 0.131367 -3.163581 -0.569532 0.260464 0.972629 1.272221 0.294039 1.737762 5.243231 -1.654972 -19.455134 0.000000 0.000000 0.000000 -25.601345 -5.908258 1.362245 -46.317976 0.235248 -5.393333 4.892969 -21.382225 -0.057339 0.000000 0.000000 0.000000 19.966670 9.436163 2.891801 38.006266 22.318689 3.220974 -65.807390 24.570172 -13.721346 0.000000 0.000000 0.000000 
0.002270 0.954980 -0.000181 -0.136288 -3.221342 3.247448 5.008128 -0.026648 0.737917 -0.041049 0.228227 -6.462750 -1.324497 2.602215 13.785400 0.000000 0.000000 0.000000 -5.728243 0.302215 -1.686388 0.488185 -0.192853 -4.184011 3.076487 -1.288758 15.932059 0.000000 0.000000 0.000000 0.014855 0.114425 -2.651138 -0.912473 0.429500 1.389768 1.079937 0.608670 0.752825 5.987070 -2.198176 -18.266569 0.000000 0.000000 0.000000 -25.668167 -6.549483 1.758122 -46.815726 1.279429 -5.760651 4.328202 -22.521588 0.042075 0.000000 0.000000 0.000000 19.426303 10.500856 3.418830 35.919065 26.318414 4.194864 -78.580990 27.782808 -20.070942 0.000000 0.000000 0.000000 
0.002426 0.954685 0.000091 -0.065073 -3.899150 3.355441 4.774628 -0.032326 0.440249 0.048193 0.229712 -6.611571 -0.811390 3.740104 15.164413 0.000000 0.000000 0.000000 -5.899836 0.346390 -2.306966 0.740408 -0.182919 -3.419605 3.019105 -1.293503 15.425726 0.000000 0.000000 0.000000 0.315416 0.110636 -2.527659 -1.258764 0.603825 1.583712 1.080274 0.438417 0.366221 6.189571 -2.414953 -17.752219 0.000000 0.000000 0.000000 -25.356557 -7.251147 2.369151 -47.837014 2.031881 -6.188482 3.929863 -23.303490 0.141213 0.000000 0.000000 0.000000 17.938476 11.658210 3.897501 33.926188 29.330712 4.741558 -88.841562 30.255397 -26.570370 0.000000 0.000000 0.000000 
0.002503 0.955236 0.000280 -0.175814 -4.438505 3.533173 4.701905 -0.045972 0.090128 0.299501 0.196210 -6.131593 -0.505239 4.147113 15.205324 0.000000 0.000000 0.000000 -5.647061 0.380089 -2.931295 0.288970 -0.123660 -2.607270 3.438410 -0.460702 15.047445 0.000000 0.000000 0.000000 0.638656 0.106456 -2.415211 -1.426848 0.689940 1.466488 0.982999 0.771147 0.243983 6.446037 -2.603974 -17.331444 0.000000 0.000000 0.000000 -25.327739 -7.481901 2.482616 -48.341053 2.349070 -6.359314 3.445485 -23.359154 0.234405 0.000000 0.000000 0.000000 17.215826 12.205638 4.203843 31.923227 30.687262 4.699186 -97.749287 33.505173 -34.337388 0.000000 0.000000 0.000000 
0.002425 0.955543 0.000216 -0.287564 -4.844252 3.782649 4.521353 -0.045820 0.040883 0.779040 0.177678 -6.384558 -0.300808 4.452286 15.389602 0.000000 0.000000 0.000000 -5.747775 0.421483 -3.567167 0.781994 -0.147205 -2.248574 3.445989 -0.672710 15.392058 0.000000 0.000000 0.000000 0.816956 0.095757 -2.204309 -1.511687 0.728889 0.770584 0.935134 0.880860 0.746954 6.651041 -2.681455 -17.822074 0.000000 0.000000 0.000000 -25.095282 -7.932684 2.826665 -48.985775 2.578587 -6.589096 3.284938 -23.386629 0.276021 0.000000 0.000000 0.000000 16.421416 12.688939 4.439256 30.369741 31.609425 4.562146 -105.865667 36.613533 -43.036445 0.000000 0.000000 0.000000 
